<?xml version="1.0" encoding="UTF-8"?>
<svg id="Layer_1" xmlns="http://www.w3.org/2000/svg" width="512" height="512" version="1.1" viewBox="0 0 512 512">
  <!-- Generator: Adobe Illustrator 29.8.3, SVG Export Plug-In . SVG Version: 2.1.1 Build 3)  -->
  <path d="M48.8,346.93c-18.48,0-46.51-32.79-46.51-94.21C2.3,147.18,75.64,47.61,122.14,47.61c27.43,0,50.09,35.77,115.67,35.77,85.86,0,91.23-36.37,127.6-36.37,26.83,0,74.53,46.51,100.77,69.16,26.24,22.66,43.53,55.45,43.53,119.25s-23.25,124.02-50.68,124.02c-17.89,0-39.61-31.16-44.12-57.24-5.37-31-31-64.39-72.15-64.39s-193.18.59-209.88.59-18.25,6.02-20.87,16.1c-11.33,43.53-27.43,92.42-63.2,92.42Z" fill="#fff"/>
  <path d="M259.28,464.98c-94.8,0-134.75-18.48-134.75-89.44,0-26.83,11.33-53.66,23.25-53.66s40.54,17.89,100.17,17.89c77.51,0,79.3-18.48,95.4-18.48s39.95,30.41,39.95,73.34c0,60.22-33.39,70.36-124.02,70.36Z" fill="#fff"/>
</svg>