<?xml version="1.0" encoding="UTF-8"?>
<svg id="Layer_1" xmlns="http://www.w3.org/2000/svg" width="512" height="512" version="1.1" viewBox="0 0 512 512">
  <!-- Generator: Adobe Illustrator 29.8.3, SVG Export Plug-In . SVG Version: 2.1.1 Build 3)  -->
  <path d="M142.72,455.68c-6.38,5.53-13.5,10.31-20.13,15.59-.54.31-1.34.36-1.98.57-4.46,4.52-11.3,6.65-15.59,11.34-.98-.23-1.09.42-1.98.28-2.32,1.84-4.89,3.42-6.8,5.67-.88-.03-1.35.35-1.98.57-5.08,4.56-11.38,7.89-15.87,13.04-3.78,1.13-5.14,4.68-9.07,5.67.24.7,1.05.84,1.42,1.42-3.4.66-8.03.1-11.91.28-1.42-.12.63-.6.28-1.42-3.94-3.41-5.81-12.94-3.68-20.13,1.01-3.43,3.57-5.55,4.82-8.22.4-.85.19-1.94.57-2.83,1.09-2.62,3.53-5.09,5.1-7.94,1.36-2.46,2.28-4.99,3.69-7.09.6-.89,1.7-1.61,2.27-2.55.49-.82.41-1.99.85-2.83,1.28-2.45,3.98-4.87,5.1-7.37.25-.56-.03-1.46.28-1.98,1.1-1.85,3.64-2.57,3.4-5.95,2.69-2.2,3.8-5.17,5.39-8.79,1.69-3.85,5.38-6.35,6.24-11.05,5.55-7.06,9.72-16.1,14.74-24.38,1.43-2.35,3.6-4.35,4.82-6.52,1.49-2.66,2.09-5.4,3.68-7.65.49-.69,1.51-1,1.98-1.7.8-1.18.93-2.77,1.7-3.97,1.28-1.97,3.33-3.49,4.54-5.39.47-.74.55-2.07,1.13-3.12.71-1.26,2.25-2.51,2.83-4.25.74-2.19,1.69-5.91,1.42-7.65-.75-4.82-10.57-2.64-13.04-.28-7.86,1.77-14.68,4.6-20.69,8.22-7.93,2.28-14.14,6.27-20.98,9.64-2.52.12-3.95,1.34-5.1,2.84-2.74.19-4.5,1.36-5.95,2.83-2.87.15-4.49,1.56-5.95,3.12-2.41-.33-3.92,1.98-5.95,2.83-1.07.45-2.34.34-3.4.85-2.01.97-5.97,3.79-9.07,3.97-2.11.12-5.68-1.17-4.54-6.52,4.39-3.37,7.5-8.02,11.91-11.34,2.8-2.1,6.58-3.1,9.07-5.67,4.72-1.33,8.63-3.47,11.91-6.24,4.62-.74,7.17-4.24,11.62-5.95,1.24-.48,2.75-.37,3.97-.85,1.67-.65,3.1-2.09,4.82-2.55,2.19-.58,3.86-.52,5.39-2.27,4.63-.79,7.64-2.06,12.76-3.4,2.97-.78,5.57-1.91,9.35-2.83,4.61-1.13,8.88-2.62,13.04-3.12,2.24-.27,3.77-2.63,7.37-1.98,1.06.19,2.42,1.54,3.69,1.98,3.13,1.11,7.05,1.63,9.35,3.12,1.69,1.09,2.45,3.25,3.97,4.25v5.67c-2.78,3.59-3.43,9.48-5.95,14.17-1.01,1.87-2.78,2.9-2.83,5.95-5.7,2.74-9.04,10.29-13.32,16.16-1.23,1.68-3.14,3.38-3.97,4.82-.35.61-.22,1.44-.57,1.98-.72,1.11-1.9,1.83-2.55,2.83-.63.97-.75,2.37-1.42,3.4-1.99,3.06-4.9,4.56-5.67,8.79-2.41,1.74-3.63,4.42-5.39,7.09-.52.8-1.53,1.49-1.98,2.27-.39.67-.16,1.64-.57,2.27-.62.96-1.88,1.59-2.55,2.55-1.23,1.77-1.87,4.09-3.12,5.95-.6.89-1.7,1.39-2.27,2.27-1.51,2.34-2.54,5.12-3.97,7.65-2.59,4.58-6.07,8.44-8.22,13.89-.94.95-1.99,1.79-2.83,2.83.2,1.24-.48,1.6-.28,2.83-2.29,2.63-4.27,6.51-6.24,10.21-1.15,2.18-9.15,13.69-.28,12.47,2.65-.37,5-3.74,7.65-5.67,2.87-2.08,5.54-3.8,7.09-5.95,1.18.24,1.34-.55,2.27-.57,3.22-2.63,7.21-4.85,11.34-7.37,2.98-1.82,6.29-4.65,9.92-6.24,1.03-.45,2.14-.38,3.12-.85,2.94-1.43,7.14-5.1,11.62-5.67,3.85-.49,11.22-1.09,10.2,3.97ZM281.05,502.17c1.73-3.42-.23-11.72-1.13-16.16-.55-2.69-.96-5.48-1.42-7.94-.53-2.85-1.66-5.29-1.98-7.37-.7-4.44-.59-9.04-1.7-13.32-.99-3.81-2.98-8.43-2.83-12.19.18-4.58,3.76-8.27,7.09-11.34,6.87-6.34,12.85-11.8,18.99-18.43,1.3-1.41,3.19-2.58,3.97-3.69.93-1.33,1.53-3.1,2.55-4.54,2.54-3.59,2.71-6.68,4.54-11.06,1.1-2.63,3.26-5.54,4.25-9.07,1.33-4.71,1.35-13.41.85-19.56-.3-3.65-1.07-4.86-2.27-7.09-3.2-5.92-5.37-9.12-10.49-13.04-4.84-1.9-8.33-4.12-15.02-4.82-2.43-.25-5.3-.33-7.65-.28-3.3.07-11.09-.82-14.17.28-1.86.67-4,.54-6.52,1.13-.96.23-1.95,1.47-3.69,2.27-1.61.74-3.62.69-4.82,1.42-1.38.84-3.7,3.15-3.97,3.68-1.65,3.29-.87,14.26.57,19.28.35,1.23,1.19,2.12,1.42,3.12.77,3.36.88,7.08,1.7,10.77,1.65,7.45,1.38,14.72,3.12,22.11.87,3.72.99,7.39,1.7,11.05.54,2.8,1.67,5.17,1.98,7.94.68,5.95.7,12.55,1.42,18.43.34,2.8,1.3,5.33,1.98,8.22,1.54,6.55,2.35,12.99,2.83,19.27.39,5.12,1.93,9.95,2.83,13.61.37,1.49.35,3.34.85,4.82.44,1.29,1.82,2.64,2.27,4.25.9,3.25.82,6.71,2.27,8.79,1.17,1.19,2.84,1.88,4.25,2.83,2.55-1.2,5.14-1.23,6.24-3.4ZM441.49,369.22c-.18-2.44-.96-4.71-1.13-7.09-.42-5.82-.28-13.94-2.27-17.57-2.91-5.32-9.9,2.3-11.05,4.25-.55.92-.62,2.06-1.13,3.12-.46.95-1.51,1.6-1.98,2.55-1.02,2.04-1.74,4.37-2.55,5.95-.59,1.16-.77,2.71-1.42,3.97-.49.96-1.52,1.57-1.98,2.55-.46.97-.38,2.39-.85,3.69-.5,1.37-1.64,2.49-1.98,3.68-1.33,4.6-2.36,9.66-3.69,14.17-.46,1.55-1.48,2.76-1.98,4.25-1.7,5.05-1.73,12.15-4.25,15.02-.94,1.07-3.19,2.28-4.82,2.84-1.5.51-3.17.08-5.1.57-2.06.52-6.65,2.92-7.94,3.97-.89.73-2.08,2.43-3.12,3.69-3.84,4.65-1.1,9.06,3.4,11.05,3.75,1.66,12.32-1.73,13.32,2.55.65,2.74-1.79,3.73-1.42,7.94-4.8,9.23-7.94,25.3-6.52,38.27.42,3.87,2.15,5.99,5.39,7.09,2.05-1.16,4.14-2.29,5.95-3.69,1.49-3.54,1.48-7.32,1.7-12.19.42-9.5.91-22.41,3.4-31.75,1.02-3.83.93-7.6,1.98-10.2,2.24-5.54,6.24-8.71,10.49-11.91,2.5.28,5-4.21,8.5-3.12,2.24.7,1.85,7.74,1.7,11.34-.16,3.92.26,9.26-.28,12.47-.28,1.68-1.82,3.69-1.98,5.1-.54,4.77,1.64,13.95,1.98,21.83.13,2.89.2,5.67.28,7.65.27,6.16,1.42,11.06,1.42,15.87,0,5.86-1.99,14.9-2.83,19.56.41,1.72,1.15,2.01,0,3.4h10.77c.22-1.17-1.36-.53-1.13-1.7,6.4-3.41,5.48-10.32,5.1-18.99-.26-5.89-.01-12.14-.28-18.14-.93-20.44-1.98-44.66,1.13-62.93,2.76-1.9,4.26-5.78,7.94-7.09,1.82-.65,4.33-.92,6.52-1.42,3.66-.84,7.42-1.36,10.2-2.27,1.92-2.33,5.19-3.1,6.24-6.52.65-2.48.65-5.65-.28-6.52-.92-2.27-3.15-3.64-5.67-3.69-3.61-.07-5.92,2.32-8.22,3.4-.83.39-2.02.42-2.83.85-1.22.64-1.84,1.78-3.12,2.27-.94.36-1.91.04-2.83.28-3.79,1.01-6.46,4.52-10.21,4.25-2.75-6.47-1.93-14.1-2.55-22.68ZM344.83,347.68c-5.5.06-15.24-.45-17.57,3.97-1.74,3.28.57,8.72,1.13,11.34,1.4,6.48,1.04,14.2,2.55,21.54,1.18,5.72,3.28,11.25,4.25,16.44,2.5,13.37-.2,25.98,2.27,37.42.86,3.99.92,8.01,1.7,11.62.38,1.76,1.71,3.57,1.98,5.67.55,4.25.24,8.4.85,12.47.58,3.9,1.66,7.71,2.27,11.34.78,4.66-.75,11.67.57,16.44.63,2.3,2.47,2.41,3.68,4.25,1.44,2.18,2.32,6.78,5.39,6.8,2.4.02,6.32-5.73,7.09-7.94,1.05-3.06,1.21-9.14,0-12.76-.55-1.64-2.1-3.13-2.55-4.82-.58-2.18-.14-4.54-.85-7.09-.42-1.49-1.33-2.78-1.7-4.25-.36-1.43-.22-2.91-.57-4.53-1.51-7.12-5.15-13.81-5.67-20.69-.39-5.08.63-7.77,1.7-11.34.62-2.06.71-4.46,1.42-6.24,3.21-8,7.9-12.58,13.89-18.99.41-2.52,1.67-4.19,3.4-5.39.06-2.77,1.63-4.04,2.55-5.95.01-4.27,2.68-7.93,3.12-12.19.81-7.9-2.3-14.83-3.12-21.83-2.03-2.6-4.6-4.66-6.8-7.09-6.9-1.88-12.8-8.32-20.98-8.22ZM194.87,355.05c-3.84.99-5.45,5.54-7.37,8.22-.89,6.36-3,13.39-3.97,20.41-.29,2.08-.05,4.22-.57,6.24-.43,1.68-1.62,3.14-1.98,4.82-1.29,5.86-2.13,11.66-3.97,17.01-2.32,3.72-4.34,6.08-7.65,9.07-1.59,1.43-3.27,3.52-4.82,4.53-2.02,1.32-4.59,2.19-6.52,3.69-2.91,2.25-8.61,5.68-6.52,11.34.52,1.4,2.81,3.67,4.82,4.54,4.58,1.97,18.07-3.52,19.56,2.55.49,2.01-.47,6.81-1.13,9.07-.36,1.24-1.52,2.1-1.98,3.4-1.02,2.88-.78,6.33-1.42,8.79-.38,1.46-1.78,3.19-2.27,5.39-.31,1.41,0,2.82-.28,4.54-.8,4.83-3.42,10.54-2.27,14.46.46,1.55,4.16,4.89,7.37,4.82,3.95-.08,7.41-3.99,8.22-7.37,1.19-4.94,1.17-11.86,1.98-18.71,1.15-9.68,1.84-19.75,3.4-27.78.65-3.32.59-6.49,1.13-9.07,1.13-5.41,10.47-17.22,14.74-9.64,1.79,3.17,1.62,12.42,1.98,18.14.29,4.61.96,13.07,2.27,17.58.42,1.45,1.41,2.82,1.7,3.97.62,2.46.83,5.53,1.42,8.22.99,4.51,1.64,8.1,2.83,12.76.46,1.8,1.33,3.45,1.42,4.82.09,1.3-.65,2.32-.57,3.4.1,1.31,1.06,3.74,1.7,4.82,1.03,1.74,3.69,3.65,6.24,3.69,7.49-1.15,7.73-8.84,6.24-17.29-1.1-6.21-3.34-13.89-4.54-22.11-.55-3.78-.58-7.68-1.13-11.34-.57-3.75-1.72-7.16-2.27-10.49-.39-2.4-.37-4.82-.85-7.09-.49-2.33-1.38-4.51-1.7-6.52-1.52-9.55,2.04-13.55,6.52-18.71,2.43-2.8,7.3-5.42,7.37-9.07.05-2.46-2.53-4.77-3.97-6.52-4.79-2.56-10.46,1.53-15.31-.57-3.49-1.51-2.96-9.49-3.12-14.46-.3-9.55-1.57-16.57-4.82-21.83-3.22-1.25-6.67-2.54-9.92-1.7ZM297.49,362.71c3.01,7.6,4.04,19.3,1.42,28.35-1.34,4.62-1.86,7.07-4.54,10.2-1.2,1.4-2.93,2.53-4.25,3.97-1.27,1.38-2.4,3.08-3.68,4.54-2.64,2.99-5.67,5.32-8.5,7.94-1.88,1.74-4,6.89-7.37,6.24-2.63-.51-3.1-6.01-4.25-10.49-2.2-8.56-2.7-16.41-3.97-25.23-.65-4.53-.78-9.24-1.7-12.76-.92-3.52-4.7-12.15-2.27-16.16.96-1.59,8.39-5.24,12.19-5.39,1.97-.08,4.73.99,7.65,1.13,6.2.3,8.02-.7,11.62,1.42,3.02,1.77,5.2,3.64,7.65,6.24ZM424.76,397c-.21-3.66.31-17.27,6.24-15.87,5.73,4.73,2.32,17.41-6.24,15.87ZM338.87,365.54c2.19-6.01,8.16-2.35,13.32-.28,4.25,1.7,7.85,1.63,9.64,5.67.99,2.24.37,5.21.57,8.5.12,1.96,1.03,3.81,1.13,5.1.25,3.1-.55,9.23-1.98,12.76-.79,1.96-2.85,4.58-4.25,7.09-1.25,2.23-3.7,7.38-6.24,7.37-3.3-.02-3.44-4.56-4.54-7.94-1.2-3.68-3.81-6.8-4.7-9.34-1.08-3.09-1.39-9.05-1.82-13.34-.54-5.39-1.29-10.42-1.13-15.59ZM195.16,381.41c4.37-2.27,4.58,3.61,5.39,8.5.87,5.29,3.44,9.95.57,14.17-1.11,1.63-5.72,4.79-7.94,4.25-1.61-.39-2.83-4.31-3.12-6.8-.37-3.16.74-6.54,1.42-9.92.9-4.47,1.44-6.95,3.69-10.21Z" fill="#fff" fill-rule="evenodd"/>
  <g>
    <path d="M98.45,230.09c-14.09,0-35.45-24.99-35.45-71.8C63.01,77.86,118.9,1.97,154.35,1.97c20.9,0,38.17,27.27,88.16,27.27,65.44,0,69.53-27.72,97.25-27.72,20.45,0,56.8,35.45,76.8,52.71,20,17.27,33.17,42.26,33.17,90.88s-17.72,94.52-38.62,94.52c-13.63,0-30.19-23.75-33.63-43.62-4.09-23.63-23.63-49.08-54.98-49.08s-147.23.45-159.96.45-13.91,4.59-15.9,12.27c-8.63,33.17-20.9,70.44-48.17,70.44Z" fill="#fff"/>
    <path d="M258.86,320.07c-72.25,0-102.7-14.09-102.7-68.16,0-20.45,8.63-40.9,17.72-40.9s30.9,13.63,76.34,13.63c59.08,0,60.44-14.09,72.71-14.09s30.45,23.18,30.45,55.89c0,45.9-25.45,53.62-94.52,53.62Z" fill="#fff"/>
  </g>
</svg>